External Loads File
version=1
nRows=39
nColumns=13
Range=5.000000e-03-10 seconds
endheader
time 	forceRightX 	forceRightY 	forceRightZ 	pointRightX 	pointRightY 	pointRightZ 	forceLeftX 	forceLeftY 	forceLeftZ 	pointLeftX 	pointLeftY 	pointLeftZ 		
7.505000 155.863547 215.624835 -0.000000 0.107544 0.161344 -0.103237 -138.805850 -143.472284 -0.000000 0.257308 0.480334 -0.341929
7.510000 145.051753 184.221219 -0.000000 0.099596 0.165670 -0.103316 -127.333966 -123.167585 -0.000000 0.265047 0.476907 -0.342210
7.515000 133.128571 153.698770 -0.000000 0.092063 0.170795 -0.103355 -116.446488 -101.946621 -0.000000 0.272488 0.472863 -0.342977
7.520000 120.417619 124.906920 -0.000000 0.084729 0.176357 -0.103487 -107.335605 -80.511688 -0.000000 0.279170 0.468352 -0.343657
7.525000 107.757274 98.231779 -0.000000 0.077696 0.182544 -0.103618 -101.195893 -58.746219 -0.000000 0.285540 0.462737 -0.343605
7.530000 95.503621 74.386455 -0.000000 0.071053 0.189241 -0.103644 -98.507173 -36.555217 -0.000000 0.291508 0.456522 -0.344288
7.535000 84.111280 53.798423 -0.000000 0.064607 0.196356 -0.103587 -99.418484 -13.542167 -0.000000 0.296915 0.449594 -0.344766
7.540000 73.938618 36.668305 -0.000000 0.058487 0.204061 -0.103570 -103.644796 10.747962 -0.000000 0.301816 0.441743 -0.345193
7.545000 65.093259 23.199427 -0.000000 0.052607 0.212127 -0.103531 -110.602241 36.389626 -0.000000 0.306004 0.433550 -0.345456
7.550000 57.637400 13.253058 -0.000000 0.047174 0.220671 -0.103475 -119.619600 63.599039 -0.000000 0.309395 0.424572 -0.345888
7.555000 51.451308 6.801371 -0.000000 0.042263 0.229461 -0.103491 -130.374659 92.226160 -0.000000 0.311901 0.415546 -0.346107
7.560000 46.431961 3.501022 -0.000000 0.037826 0.238590 -0.103429 -142.595234 122.774804 -0.000000 0.313856 0.406079 -0.346290
7.565000 42.478001 3.030119 -0.000000 0.033924 0.248023 -0.103394 -156.226430 155.748064 -0.000000 0.315351 0.396003 -0.346672
7.570000 39.573955 5.005395 -0.000000 0.030499 0.257778 -0.103425 -171.169427 191.580900 -0.000000 0.316612 0.385404 -0.347036
7.575000 37.804809 9.024038 -0.000000 0.027493 0.268032 -0.103504 -186.957304 230.452188 -0.000000 0.317617 0.374328 -0.347327
7.580000 37.317726 14.876152 -0.000000 0.025155 0.278407 -0.103517 -203.515886 271.512966 -0.000000 0.318141 0.363177 -0.347563
7.585000 38.374250 22.330419 -0.000000 0.023397 0.288850 -0.103613 -219.929735 314.152758 -0.000000 0.318430 0.351833 -0.347810
7.590000 41.326061 31.201427 -0.000000 0.022358 0.299394 -0.103663 -235.308173 357.492776 -0.000000 0.318621 0.340369 -0.348371
7.595000 46.507175 41.193848 -0.000000 0.022059 0.310010 -0.103731 -248.778417 400.493179 -0.000000 0.318510 0.328820 -0.348458
7.600000 54.046061 51.834594 -0.000000 0.022389 0.320722 -0.103794 -259.585376 441.965548 -0.000000 0.317911 0.317403 -0.348549
7.605000 63.737877 62.498782 -0.000000 0.023524 0.331470 -0.103829 -267.073881 480.756973 -0.000000 0.316719 0.306244 -0.348235
7.610000 74.958115 72.569709 -0.000000 0.025323 0.341869 -0.103870 -271.257027 515.637842 -0.000000 0.314956 0.295400 -0.348144
7.615000 86.927190 81.308424 -0.000000 0.027781 0.352014 -0.103971 -271.403250 546.246738 -0.000000 0.312873 0.284665 -0.348131
7.620000 98.728746 87.975465 -0.000000 0.030916 0.362149 -0.104039 -266.786405 572.676119 -0.000000 0.310131 0.273986 -0.347968
7.625000 109.239913 92.115480 -0.000000 0.034861 0.372195 -0.104024 -257.780723 594.853011 -0.000000 0.306925 0.263467 -0.347938
7.630000 117.389907 93.555154 -0.000000 0.039368 0.381945 -0.103960 -245.045279 612.816356 -0.000000 0.303218 0.253099 -0.347956
7.635000 122.376075 92.357697 -0.000000 0.044551 0.391542 -0.104077 -229.085900 626.784713 -0.000000 0.298996 0.243265 -0.347729
7.640000 123.829955 88.656547 -0.000000 0.050221 0.400897 -0.104243 -209.600028 637.280471 -0.000000 0.294197 0.233509 -0.347348
7.645000 121.602859 82.869401 -0.000000 0.057052 0.409972 -0.104320 -186.841963 644.544338 -0.000000 0.288952 0.224120 -0.346979
7.650000 115.666728 75.761248 -0.000000 0.063970 0.418879 -0.104444 -162.310287 648.442628 -0.000000 0.283351 0.215037 -0.346520
7.655000 106.367062 67.941855 -0.000000 0.071473 0.427326 -0.104325 -136.562537 649.148741 -0.000000 0.277294 0.206457 -0.346161
7.660000 94.228689 59.945079 -0.000000 0.078991 0.435573 -0.104671 -110.016260 646.800973 -0.000000 0.270736 0.198151 -0.345959
7.665000 79.945957 52.023803 -0.000000 0.087830 0.443373 -0.104863 -81.976681 641.620112 -0.000000 0.263826 0.190350 -0.345332
7.670000 63.912331 44.686849 -0.000000 0.096418 0.450575 -0.105033 -55.398242 633.316160 -0.000000 0.256503 0.183064 -0.345107
7.675000 46.814892 37.623566 -0.000000 0.105573 0.457291 -0.105400 -29.055405 622.246543 -0.000000 0.248779 0.176277 -0.344897
7.680000 29.080176 30.526454 -0.000000 0.115134 0.463698 -0.105906 -3.299150 608.558881 -0.000000 0.240639 0.169968 -0.344966
7.685000 11.018858 22.965480 -0.000000 0.125213 0.469355 -0.106012 21.167772 592.492986 -0.000000 0.232223 0.164276 -0.344887
7.690000 -7.095436 14.462323 -0.000000 0.135299 0.474524 -0.106326 43.642155 574.435024 -0.000000 0.223459 0.159666 -0.344649
7.695000 -24.966886 4.682643 -0.000000 0.145754 0.479189 -0.106416 64.887559 554.737704 -0.000000 0.214409 0.155877 -0.344541
